<svg width="252" height="56" viewBox="0 0 252 56" fill="none" xmlns="http://www.w3.org/2000/svg">
<path d="M248.701 39.48C247.501 39.48 246.561 39.3 245.881 38.94C245.201 38.56 244.731 38.02 244.471 37.32C244.211 36.62 244.081 35.77 244.081 34.77V24.93H242.371V21.96H244.081V16.71H248.671V21.96H251.191V24.93H248.671V34.35C248.671 34.89 248.801 35.28 249.061 35.52C249.341 35.74 249.721 35.85 250.201 35.85C250.441 35.85 250.671 35.84 250.891 35.82C251.111 35.78 251.311 35.75 251.491 35.73V39.27C251.211 39.31 250.811 39.35 250.291 39.39C249.771 39.45 249.241 39.48 248.701 39.48Z" fill="#D9D9D9"/>
<path d="M235.26 39.6C233.98 39.6 232.91 39.36 232.05 38.88C231.19 38.38 230.54 37.68 230.1 36.78C229.68 35.88 229.47 34.81 229.47 33.57V27.72C229.47 26.42 229.68 25.33 230.1 24.45C230.54 23.55 231.19 22.86 232.05 22.38C232.91 21.9 233.98 21.66 235.26 21.66C236.5 21.66 237.54 21.86 238.38 22.26C239.22 22.64 239.84 23.22 240.24 24C240.66 24.78 240.87 25.76 240.87 26.94V28.59H236.55V26.82C236.55 26.3 236.5 25.9 236.4 25.62C236.32 25.32 236.18 25.11 235.98 24.99C235.8 24.87 235.56 24.81 235.26 24.81C234.96 24.81 234.72 24.89 234.54 25.05C234.36 25.19 234.23 25.44 234.15 25.8C234.07 26.14 234.03 26.62 234.03 27.24V34.05C234.03 34.99 234.13 35.63 234.33 35.97C234.55 36.29 234.87 36.45 235.29 36.45C235.61 36.45 235.86 36.38 236.04 36.24C236.22 36.1 236.35 35.88 236.43 35.58C236.51 35.28 236.55 34.9 236.55 34.44V32.34H240.87V34.23C240.87 35.39 240.66 36.38 240.24 37.2C239.82 38 239.19 38.6 238.35 39C237.51 39.4 236.48 39.6 235.26 39.6Z" fill="#D9D9D9"/>
<path d="M221.491 39.6C220.211 39.6 219.141 39.37 218.281 38.91C217.421 38.43 216.771 37.74 216.331 36.84C215.891 35.92 215.671 34.82 215.671 33.54V27.72C215.671 26.4 215.891 25.3 216.331 24.42C216.771 23.52 217.431 22.84 218.311 22.38C219.191 21.9 220.251 21.66 221.491 21.66C222.811 21.66 223.881 21.9 224.701 22.38C225.521 22.86 226.121 23.56 226.501 24.48C226.901 25.4 227.101 26.52 227.101 27.84V30.87H220.141V34.23C220.141 34.73 220.191 35.14 220.291 35.46C220.411 35.78 220.571 36.01 220.771 36.15C220.971 36.27 221.221 36.33 221.521 36.33C221.801 36.33 222.041 36.27 222.241 36.15C222.461 36.01 222.621 35.8 222.721 35.52C222.821 35.24 222.871 34.87 222.871 34.41V32.76H227.071V34.2C227.071 35.96 226.591 37.3 225.631 38.22C224.671 39.14 223.291 39.6 221.491 39.6ZM220.141 28.71H222.871V27C222.871 26.5 222.821 26.1 222.721 25.8C222.621 25.48 222.461 25.26 222.241 25.14C222.041 25 221.781 24.93 221.461 24.93C221.161 24.93 220.911 25 220.711 25.14C220.531 25.28 220.391 25.53 220.291 25.89C220.191 26.23 220.141 26.72 220.141 27.36V28.71Z" fill="#D9D9D9"/>
<path d="M208.543 44.49C208.123 44.49 207.703 44.46 207.283 44.4C206.883 44.34 206.503 44.25 206.143 44.13V40.89C206.263 40.91 206.403 40.93 206.563 40.95C206.723 40.97 206.873 40.98 207.013 40.98C207.333 40.98 207.593 40.92 207.793 40.8C207.993 40.7 208.143 40.53 208.243 40.29C208.363 40.05 208.423 39.75 208.423 39.39V21.96H212.953V39.93C212.953 41.29 212.573 42.39 211.813 43.23C211.073 44.07 209.983 44.49 208.543 44.49ZM208.423 19.11V15.72H212.953V19.11H208.423Z" fill="#D9D9D9"/>
<path d="M199.402 39.6C198.162 39.6 197.102 39.38 196.222 38.94C195.342 38.48 194.672 37.82 194.212 36.96C193.772 36.1 193.552 35.03 193.552 33.75V27.51C193.552 26.23 193.772 25.16 194.212 24.3C194.672 23.44 195.342 22.79 196.222 22.35C197.102 21.89 198.162 21.66 199.402 21.66C200.642 21.66 201.702 21.89 202.582 22.35C203.462 22.79 204.132 23.44 204.592 24.3C205.052 25.16 205.282 26.23 205.282 27.51V33.75C205.282 35.03 205.052 36.1 204.592 36.96C204.132 37.82 203.462 38.48 202.582 38.94C201.702 39.38 200.642 39.6 199.402 39.6ZM199.432 36.54C199.812 36.54 200.102 36.44 200.302 36.24C200.502 36.02 200.632 35.73 200.692 35.37C200.752 34.99 200.782 34.56 200.782 34.08V27.21C200.782 26.71 200.752 26.28 200.692 25.92C200.632 25.56 200.502 25.27 200.302 25.05C200.102 24.83 199.812 24.72 199.432 24.72C199.052 24.72 198.762 24.83 198.562 25.05C198.362 25.27 198.222 25.56 198.142 25.92C198.082 26.28 198.052 26.71 198.052 27.21V34.08C198.052 34.56 198.082 34.99 198.142 35.37C198.222 35.73 198.362 36.02 198.562 36.24C198.762 36.44 199.052 36.54 199.432 36.54Z" fill="#D9D9D9"/>
<path d="M182.868 39.3V21.96H187.398V24.75C187.978 23.73 188.548 22.98 189.108 22.5C189.688 22 190.368 21.75 191.148 21.75C191.288 21.75 191.408 21.76 191.508 21.78C191.628 21.78 191.738 21.8 191.838 21.84V26.4C191.618 26.3 191.368 26.22 191.088 26.16C190.808 26.08 190.518 26.04 190.218 26.04C189.658 26.04 189.148 26.19 188.688 26.49C188.228 26.77 187.798 27.18 187.398 27.72V39.3H182.868Z" fill="#D9D9D9"/>
<path d="M166.525 39.3V15H174.235C175.695 15 176.885 15.28 177.805 15.84C178.725 16.38 179.405 17.17 179.845 18.21C180.305 19.25 180.535 20.51 180.535 21.99C180.535 23.73 180.235 25.09 179.635 26.07C179.055 27.05 178.255 27.75 177.235 28.17C176.215 28.57 175.045 28.77 173.725 28.77H171.475V39.3H166.525ZM171.475 25.29H173.215C173.935 25.29 174.485 25.18 174.865 24.96C175.265 24.72 175.535 24.35 175.675 23.85C175.815 23.35 175.885 22.71 175.885 21.93C175.885 21.19 175.825 20.57 175.705 20.07C175.605 19.57 175.365 19.18 174.985 18.9C174.605 18.62 174.005 18.48 173.185 18.48H171.475V25.29Z" fill="#D9D9D9"/>
<path d="M150.416 39.6C149.136 39.6 148.066 39.37 147.206 38.91C146.346 38.43 145.697 37.74 145.257 36.84C144.817 35.92 144.596 34.82 144.596 33.54V27.72C144.596 26.4 144.817 25.3 145.257 24.42C145.697 23.52 146.357 22.84 147.237 22.38C148.117 21.9 149.176 21.66 150.416 21.66C151.736 21.66 152.807 21.9 153.627 22.38C154.447 22.86 155.046 23.56 155.426 24.48C155.826 25.4 156.026 26.52 156.026 27.84V30.87H149.066V34.23C149.066 34.73 149.116 35.14 149.216 35.46C149.336 35.78 149.497 36.01 149.697 36.15C149.897 36.27 150.147 36.33 150.447 36.33C150.727 36.33 150.966 36.27 151.166 36.15C151.386 36.01 151.546 35.8 151.646 35.52C151.746 35.24 151.797 34.87 151.797 34.41V32.76H155.996V34.2C155.996 35.96 155.517 37.3 154.557 38.22C153.597 39.14 152.216 39.6 150.416 39.6ZM149.066 28.71H151.797V27C151.797 26.5 151.746 26.1 151.646 25.8C151.546 25.48 151.386 25.26 151.166 25.14C150.966 25 150.706 24.93 150.386 24.93C150.086 24.93 149.836 25 149.636 25.14C149.456 25.28 149.316 25.53 149.216 25.89C149.116 26.23 149.066 26.72 149.066 27.36V28.71Z" fill="#D9D9D9"/>
<path d="M136.705 39.6C135.425 39.6 134.355 39.36 133.495 38.88C132.635 38.38 131.985 37.68 131.545 36.78C131.125 35.88 130.915 34.81 130.915 33.57V27.72C130.915 26.42 131.125 25.33 131.545 24.45C131.985 23.55 132.635 22.86 133.495 22.38C134.355 21.9 135.425 21.66 136.705 21.66C137.945 21.66 138.985 21.86 139.825 22.26C140.665 22.64 141.285 23.22 141.685 24C142.105 24.78 142.315 25.76 142.315 26.94V28.59H137.995V26.82C137.995 26.3 137.945 25.9 137.845 25.62C137.765 25.32 137.625 25.11 137.425 24.99C137.245 24.87 137.005 24.81 136.705 24.81C136.405 24.81 136.165 24.89 135.985 25.05C135.805 25.19 135.675 25.44 135.595 25.8C135.515 26.14 135.475 26.62 135.475 27.24V34.05C135.475 34.99 135.575 35.63 135.775 35.97C135.995 36.29 136.315 36.45 136.735 36.45C137.055 36.45 137.305 36.38 137.485 36.24C137.665 36.1 137.795 35.88 137.875 35.58C137.955 35.28 137.995 34.9 137.995 34.44V32.34H142.315V34.23C142.315 35.39 142.105 36.38 141.685 37.2C141.265 38 140.635 38.6 139.795 39C138.955 39.4 137.925 39.6 136.705 39.6Z" fill="#D9D9D9"/>
<path d="M123.63 39.3V21.96H128.16V39.3H123.63ZM123.6 19.11V15.72H128.16V19.11H123.6Z" fill="#D9D9D9"/>
<path d="M114.939 39.6C113.699 39.6 112.639 39.38 111.759 38.94C110.879 38.48 110.209 37.82 109.749 36.96C109.309 36.1 109.089 35.03 109.089 33.75V27.51C109.089 26.23 109.309 25.16 109.749 24.3C110.209 23.44 110.879 22.79 111.759 22.35C112.639 21.89 113.699 21.66 114.939 21.66C116.179 21.66 117.239 21.89 118.119 22.35C118.999 22.79 119.669 23.44 120.129 24.3C120.589 25.16 120.819 26.23 120.819 27.51V33.75C120.819 35.03 120.589 36.1 120.129 36.96C119.669 37.82 118.999 38.48 118.119 38.94C117.239 39.38 116.179 39.6 114.939 39.6ZM114.969 36.54C115.349 36.54 115.639 36.44 115.839 36.24C116.039 36.02 116.169 35.73 116.229 35.37C116.289 34.99 116.319 34.56 116.319 34.08V27.21C116.319 26.71 116.289 26.28 116.229 25.92C116.169 25.56 116.039 25.27 115.839 25.05C115.639 24.83 115.349 24.72 114.969 24.72C114.589 24.72 114.299 24.83 114.099 25.05C113.899 25.27 113.759 25.56 113.679 25.92C113.619 26.28 113.589 26.71 113.589 27.21V34.08C113.589 34.56 113.619 34.99 113.679 35.37C113.759 35.73 113.899 36.02 114.099 36.24C114.299 36.44 114.589 36.54 114.969 36.54Z" fill="#D9D9D9"/>
<path d="M99.3061 39.3L95.8261 21.96H100.206L101.796 33.63L103.296 21.96H107.646L104.136 39.3H99.3061Z" fill="#D9D9D9"/>
<path d="M82.2612 39.3V21.96H86.7912V23.7C87.4112 23.08 88.0612 22.59 88.7412 22.23C89.4412 21.85 90.1812 21.66 90.9612 21.66C91.6812 21.66 92.2612 21.84 92.7012 22.2C93.1612 22.56 93.5012 23.04 93.7212 23.64C93.9412 24.22 94.0512 24.88 94.0512 25.62V39.3H89.5512V26.37C89.5512 25.89 89.4712 25.53 89.3112 25.29C89.1712 25.05 88.8912 24.93 88.4712 24.93C88.2312 24.93 87.9612 25 87.6612 25.14C87.3812 25.26 87.0912 25.43 86.7912 25.65V39.3H82.2612Z" fill="#D9D9D9"/>
<path d="M73.89 39.3V15H78.81V39.3H73.89Z" fill="#D9D9D9"/>
<path opacity="0.4" d="M30.1455 56C46.7943 56 60.2909 54.9077 60.2909 53.5604C60.2909 52.213 46.7943 51.1207 30.1455 51.1207C13.4966 51.1207 0 52.213 0 53.5604C0 54.9077 13.4966 56 30.1455 56Z" fill="url(#paint0_radial_9_114)"/>
<path d="M11.286 16.3294C11.4769 15.8202 10.9041 15.3747 10.4586 15.6929C-1.35771 24.1362 -1.48499 36.2071 4.56107 41.9986C8.57056 45.8384 21.681 46.9415 25.6905 50.951C26.0723 51.3329 26.7087 50.9934 26.6027 50.4631C25.3086 44.2049 17.1835 39.1559 13.4286 34.0433C9.0797 28.1245 9.20699 21.8026 11.286 16.3294Z" fill="url(#paint1_linear_9_114)"/>
<path opacity="0.6" d="M25.9238 48.3841C21.0445 45.0534 9.56764 43.8442 5.87636 40.3015C1.27287 35.8889 0.25458 27.8699 5.1975 20.5722C-1.18799 28.2942 -0.381846 37.2466 4.58229 42.0198C8.59178 45.8596 21.7022 46.9627 25.7117 50.9722C26.0935 51.3541 26.73 51.0147 26.6239 50.4843C26.4754 49.763 26.2208 49.0629 25.9238 48.3841Z" fill="url(#paint2_linear_9_114)"/>
<path d="M48.6655 16.4991C48.4534 15.9475 49.0898 15.4596 49.5777 15.799C61.2455 24.2423 61.3516 36.2283 55.3268 41.9986C51.3597 45.7959 38.4827 46.9203 34.3247 50.8449C33.9004 51.248 33.2003 50.8237 33.3488 50.2721C34.7914 44.12 42.7467 39.1135 46.4592 34.0857C50.7869 28.1881 50.7021 21.9299 48.6655 16.4991Z" fill="url(#paint3_linear_9_114)"/>
<path d="M51.2961 18.8326C52.4628 24.4544 51.2961 29.8004 47.8381 34.51C46.4168 36.4193 44.5287 38.2437 42.5346 40.153C40.2434 42.338 37.9099 44.5867 36.4249 46.9203C38.716 45.8384 41.5587 45.011 44.5075 44.1412C48.4321 42.9957 52.4841 41.8077 54.16 40.1954C56.5784 37.883 57.8088 34.4463 57.5543 30.755C57.236 26.491 55.051 22.3542 51.2961 18.8326Z" fill="url(#paint4_linear_9_114)"/>
<path d="M2.60934 30.7763C2.35477 34.4675 3.58519 37.9042 6.00362 40.2166C7.67954 41.8077 11.7315 42.9957 15.6561 44.1625C18.6049 45.0322 21.4476 45.8596 23.7387 46.9415C22.2537 44.6292 19.899 42.3805 17.629 40.1742C15.6349 38.2437 13.7256 36.4405 12.3255 34.5312C8.86754 29.8428 7.70076 24.4756 8.86754 18.8539C5.0914 22.3542 2.90634 26.491 2.60934 30.7763Z" fill="url(#paint5_linear_9_114)"/>
<path opacity="0.6" d="M57.0875 24.0726C59.6969 30.3096 58.3604 36.5678 54.4994 40.2803C50.6172 43.9928 38.2069 45.1383 33.7943 48.872C33.6034 49.3387 33.4549 49.7842 33.3488 50.2722C33.2215 50.845 33.9004 51.248 34.3247 50.845C38.4614 46.9203 51.3597 45.796 55.3268 41.9986C59.5484 37.9467 60.7576 30.8611 57.0875 24.0726Z" fill="url(#paint6_linear_9_114)"/>
<path d="M32.9033 0.906594C31.3334 -0.238976 29.212 -0.302619 27.5785 0.736879C21.5112 4.6403 11.7315 12.2138 14.7863 25.3878C17.035 35.0615 26.1784 39.6014 28.9787 46.8142C29.212 47.4082 29.4029 48.1083 29.5514 48.8508C29.5514 48.8932 29.5727 48.9357 29.6151 48.9781C29.7636 49.1478 29.9545 49.2539 30.1667 49.2539C30.4212 49.2539 30.6758 49.1478 30.8031 48.8508C30.8879 48.5114 30.9728 48.1932 31.0789 47.8749C31.0789 47.8537 31.0789 47.8325 31.1001 47.8325C34.0064 38.4346 43.3195 35.4434 45.6531 25.3878C48.326 13.7412 38.0159 4.61909 32.9033 0.906594Z" fill="url(#paint7_linear_9_114)"/>
<path d="M32.6275 3.325C31.2062 2.30671 29.3181 2.24307 27.8331 3.1765C22.381 6.67685 13.5983 13.4866 16.335 25.303C18.3503 33.9796 26.5602 38.0739 29.0847 44.5443C29.2969 45.0746 29.4666 45.7111 29.5939 46.3687C29.5939 46.4111 29.6151 46.4536 29.6575 46.496C29.7848 46.6445 29.9545 46.7506 30.1455 46.7506C30.3788 46.7506 30.591 46.6445 30.7182 46.3899C30.7819 46.0929 30.8667 45.7959 30.9516 45.4989C30.9516 45.4777 30.9516 45.4565 30.9728 45.4565C33.5822 37.0132 41.9406 34.319 44.0408 25.303C46.4592 14.8443 37.2098 6.65563 32.6275 3.325Z" fill="url(#paint8_linear_9_114)"/>
<path opacity="0.6" d="M31.1425 42.9532C31.1213 42.9532 31.1213 42.9744 31.1213 42.9957C31.0152 43.3139 30.9304 43.6533 30.8243 43.9715C30.6758 44.2685 30.4 44.3746 30.1455 44.3746C29.9333 44.3746 29.7212 44.2685 29.5727 44.0988C29.5302 44.0564 29.509 44.0139 29.509 43.9715C29.3393 43.229 29.1484 42.5289 28.8938 41.9349C26.0935 35.1464 17.2896 30.7338 14.256 22.1845C14.3408 23.224 14.5106 24.2847 14.7651 25.3878C17.0138 35.0615 26.1572 39.6014 28.9575 46.8142C29.1908 47.4082 29.3817 48.1083 29.5302 48.8508C29.5302 48.8932 29.5515 48.9356 29.5939 48.9781C29.7424 49.1478 29.9333 49.2539 30.1455 49.2539C30.4 49.2539 30.6546 49.1478 30.7819 48.8508C30.8667 48.5114 30.9516 48.1931 31.0577 47.8749C31.0577 47.8537 31.0577 47.8325 31.0789 47.8325C33.9852 38.4346 43.2983 35.4434 45.6319 25.3878C45.8652 24.3908 45.9925 23.4149 46.0561 22.439C42.8316 30.9884 34.0277 34.1917 31.1425 42.9532Z" fill="url(#paint9_linear_9_114)"/>
<defs>
<radialGradient id="paint0_radial_9_114" cx="0" cy="0" r="1" gradientUnits="userSpaceOnUse" gradientTransform="translate(30.1455 53.5607) scale(28.5574 1.95142)">
<stop stop-color="#4C4C4C"/>
<stop offset="0.9929" stop-color="#2B2C2E" stop-opacity="0"/>
</radialGradient>
<linearGradient id="paint1_linear_9_114" x1="7.40299" y1="46.4786" x2="21.3187" y2="28.7677" gradientUnits="userSpaceOnUse">
<stop stop-color="#6B4C9D"/>
<stop offset="1" stop-color="#6D7DE5"/>
</linearGradient>
<linearGradient id="paint2_linear_9_114" x1="26.243" y1="49.7853" x2="-0.962971" y2="26.2212" gradientUnits="userSpaceOnUse">
<stop stop-color="#3F338C"/>
<stop offset="0.9979" stop-color="#6D7DE5" stop-opacity="0"/>
</linearGradient>
<linearGradient id="paint3_linear_9_114" x1="39.2972" y1="47.0699" x2="57.008" y2="22.1579" gradientUnits="userSpaceOnUse">
<stop stop-color="#6B4C9D"/>
<stop offset="1" stop-color="#6D7DE5"/>
</linearGradient>
<linearGradient id="paint4_linear_9_114" x1="41.8733" y1="29.302" x2="51.4835" y2="41.2185" gradientUnits="userSpaceOnUse">
<stop stop-color="#ABB0FF"/>
<stop offset="0.995" stop-color="#6D7DE5" stop-opacity="0"/>
</linearGradient>
<linearGradient id="paint5_linear_9_114" x1="18.2774" y1="29.302" x2="8.66732" y2="41.2185" gradientUnits="userSpaceOnUse">
<stop stop-color="#ABB0FF"/>
<stop offset="0.995" stop-color="#6D7DE5" stop-opacity="0"/>
</linearGradient>
<linearGradient id="paint6_linear_9_114" x1="32.809" y1="53.4116" x2="60.9351" y2="28.9234" gradientUnits="userSpaceOnUse">
<stop stop-color="#3F338C"/>
<stop offset="0.9979" stop-color="#6D7DE5" stop-opacity="0"/>
</linearGradient>
<linearGradient id="paint7_linear_9_114" x1="35.6223" y1="3.92695" x2="24.3252" y2="38.8857" gradientUnits="userSpaceOnUse">
<stop stop-color="#DC70C8"/>
<stop offset="1" stop-color="#D23D76"/>
</linearGradient>
<linearGradient id="paint8_linear_9_114" x1="30.129" y1="29.2233" x2="30.129" y2="5.13964" gradientUnits="userSpaceOnUse">
<stop stop-color="#DC70C8" stop-opacity="0"/>
<stop offset="1" stop-color="#FC99FF"/>
</linearGradient>
<linearGradient id="paint9_linear_9_114" x1="30.1512" y1="22.4051" x2="30.1512" y2="43.195" gradientUnits="userSpaceOnUse">
<stop stop-color="#DC70C8" stop-opacity="0"/>
<stop offset="1" stop-color="#7F2B8A"/>
</linearGradient>
</defs>
</svg>
